<svg width="213" height="45" viewBox="0 0 213 45" fill="none" xmlns="http://www.w3.org/2000/svg">
<g clip-path="url(#clip0_2307_11)">
<mask id="mask0_2307_11" style="mask-type:luminance" maskUnits="userSpaceOnUse" x="0" y="0" width="45" height="45">
<path d="M45 0H0V45H45V0Z" fill="white"/>
</mask>
<g mask="url(#mask0_2307_11)">
<path d="M31.8956 35.4307H23.6611C23.6611 32.7192 25.8512 30.5229 28.5553 30.5229H31.9079C36.3371 30.5229 40.0324 26.9893 40.1057 22.5477C40.1792 18.0202 36.5207 14.327 32.0302 14.327C30.0725 14.327 28.1882 15.0387 26.72 16.327L16.0015 25.9954C13.9949 27.8113 10.8993 27.6396 9.08838 25.6273L23.3062 12.8056C23.3552 12.7565 23.4163 12.7074 23.4653 12.6584L23.9792 12.2289C26.2672 10.413 29.1059 9.41919 32.0302 9.41919C39.2126 9.41919 45.0368 15.2964 45.0001 22.4986C44.9633 29.6763 39.0413 35.4307 31.8956 35.4307Z" fill="#A1AAD2"/>
<path d="M12.8201 35.4307C5.63775 35.4307 -0.186436 29.5536 -0.14973 22.3513C-0.113023 15.1737 5.80904 9.41919 12.9669 9.41919H21.2015C21.2015 12.1308 19.0113 14.327 16.3073 14.327H12.9424C8.51312 14.327 4.81795 17.8606 4.74454 22.3023C4.67111 26.8297 8.32959 30.5229 12.8201 30.5229C14.7778 30.5229 16.662 29.8113 18.1304 28.5229L28.8488 18.8545C30.8555 17.0386 33.951 17.2104 35.762 19.2226L20.9078 32.6211H20.8712C18.5831 34.437 15.7566 35.4307 12.8201 35.4307Z" fill="#A1AAD2"/>
</g>
</g>
<path d="M63.176 33.5V11.708H70.792C72.4773 11.708 73.8533 11.932 74.92 12.38C75.9867 12.8067 76.776 13.4573 77.288 14.332C77.8 15.2067 78.056 16.3053 78.056 17.628C78.056 18.716 77.8107 19.6653 77.32 20.476C76.8293 21.2867 76.168 21.9267 75.336 22.396C74.504 22.844 73.5867 23.068 72.584 23.068L72.712 21.82C73.992 21.82 75.0693 22.0547 75.944 22.524C76.8187 22.9933 77.4907 23.644 77.96 24.476C78.4293 25.308 78.664 26.2787 78.664 27.388C78.664 29.3933 78.0453 30.9187 76.808 31.964C75.5707 32.988 73.7573 33.5 71.368 33.5H63.176ZM67.368 13.98V31.004L65.832 29.5H71.368C72.3067 29.5 73.0427 29.2653 73.576 28.796C74.1307 28.3053 74.408 27.6547 74.408 26.844C74.408 25.9693 74.1413 25.308 73.608 24.86C73.096 24.412 72.3707 24.188 71.432 24.188H65.832V20.508H70.888C71.8267 20.508 72.5413 20.316 73.032 19.932C73.5227 19.5267 73.768 18.9293 73.768 18.14C73.768 17.4147 73.5227 16.828 73.032 16.38C72.5413 15.932 71.8267 15.708 70.888 15.708H65.96L67.368 13.98ZM86.0608 32.06L79.8208 17.852H84.1088L89.9008 31.068L86.0608 32.06ZM82.4768 39.58L92.0448 17.852H96.3328L86.7648 39.58H82.4768ZM98.551 33.5V11.708H106.167C107.852 11.708 109.228 11.932 110.295 12.38C111.362 12.8067 112.151 13.4573 112.663 14.332C113.175 15.2067 113.431 16.3053 113.431 17.628C113.431 18.716 113.186 19.6653 112.695 20.476C112.204 21.2867 111.543 21.9267 110.711 22.396C109.879 22.844 108.962 23.068 107.959 23.068L108.087 21.82C109.367 21.82 110.444 22.0547 111.319 22.524C112.194 22.9933 112.866 23.644 113.335 24.476C113.804 25.308 114.039 26.2787 114.039 27.388C114.039 29.3933 113.42 30.9187 112.183 31.964C110.946 32.988 109.132 33.5 106.743 33.5H98.551ZM102.743 13.98V31.004L101.207 29.5H106.743C107.682 29.5 108.418 29.2653 108.951 28.796C109.506 28.3053 109.783 27.6547 109.783 26.844C109.783 25.9693 109.516 25.308 108.983 24.86C108.471 24.412 107.746 24.188 106.807 24.188H101.207V20.508H106.263C107.202 20.508 107.916 20.316 108.407 19.932C108.898 19.5267 109.143 18.9293 109.143 18.14C109.143 17.4147 108.898 16.828 108.407 16.38C107.916 15.932 107.202 15.708 106.263 15.708H101.335L102.743 13.98ZM120.272 17.852L121.328 22.172V33.5H117.136V17.852H120.272ZM120.464 24.316L119.696 23.964V20.764L119.984 20.412C120.218 20.028 120.57 19.612 121.04 19.164C121.53 18.716 122.085 18.332 122.704 18.012C123.344 17.6707 124.005 17.5 124.688 17.5C125.029 17.5 125.338 17.5213 125.616 17.564C125.893 17.6067 126.106 17.6813 126.256 17.788V21.596H125.232C123.845 21.596 122.778 21.82 122.032 22.268C121.285 22.6947 120.762 23.3773 120.464 24.316ZM134.703 33.82C133.145 33.82 131.78 33.4893 130.607 32.828C129.433 32.1453 128.527 31.196 127.887 29.98C127.247 28.764 126.927 27.3347 126.927 25.692C126.927 24.0707 127.247 22.652 127.887 21.436C128.527 20.1987 129.433 19.2387 130.607 18.556C131.78 17.852 133.145 17.5 134.703 17.5C136.281 17.5 137.647 17.852 138.799 18.556C139.972 19.26 140.879 20.2307 141.519 21.468C142.159 22.684 142.479 24.0813 142.479 25.66C142.479 25.8947 142.468 26.1293 142.447 26.364C142.447 26.5773 142.425 26.7587 142.383 26.908H130.351V23.772H139.215L138.575 25.276C138.575 23.9533 138.255 22.876 137.615 22.044C136.996 21.212 136.025 20.796 134.703 20.796C133.551 20.796 132.623 21.1587 131.919 21.884C131.215 22.588 130.863 23.5373 130.863 24.732V26.428C130.863 27.6867 131.215 28.6787 131.919 29.404C132.644 30.108 133.625 30.46 134.863 30.46C135.951 30.46 136.804 30.236 137.423 29.788C138.041 29.34 138.575 28.7853 139.023 28.124L141.935 29.788C141.231 31.0893 140.271 32.092 139.055 32.796C137.86 33.4787 136.409 33.82 134.703 33.82ZM154.45 17.5C155.517 17.5 156.37 17.6813 157.01 18.044C157.671 18.4067 158.162 18.8973 158.482 19.516C158.823 20.1347 159.047 20.8387 159.154 21.628C159.261 22.396 159.314 23.196 159.314 24.028V33.5H155.122V23.996C155.122 23.036 154.93 22.396 154.546 22.076C154.183 21.756 153.714 21.596 153.138 21.596C152.605 21.596 152.061 21.7027 151.506 21.916C150.951 22.108 150.429 22.396 149.938 22.78C149.469 23.1427 149.063 23.5587 148.722 24.028L148.178 21.852H149.234V33.5H145.042V17.852H148.178L149.042 20.86L147.698 20.796C148.253 20.156 148.882 19.5907 149.586 19.1C150.311 18.6093 151.079 18.2253 151.89 17.948C152.701 17.6493 153.554 17.5 154.45 17.5ZM168.845 33.884C167.416 33.884 166.157 33.532 165.069 32.828C163.981 32.124 163.139 31.1533 162.541 29.916C161.944 28.6787 161.645 27.26 161.645 25.66C161.645 24.0387 161.944 22.62 162.541 21.404C163.16 20.1667 164.013 19.2067 165.101 18.524C166.189 17.8413 167.437 17.5 168.845 17.5C170.232 17.5 171.437 17.82 172.461 18.46C173.485 19.1 174.285 20.028 174.861 21.244C175.437 22.46 175.725 23.932 175.725 25.66C175.725 27.324 175.437 28.7747 174.861 30.012C174.285 31.228 173.475 32.1773 172.429 32.86C171.405 33.5427 170.211 33.884 168.845 33.884ZM169.581 30.012C170.669 30.012 171.555 29.6173 172.237 28.828C172.92 28.0173 173.261 26.972 173.261 25.692C173.261 24.3907 172.92 23.3453 172.237 22.556C171.555 21.7453 170.669 21.34 169.581 21.34C168.515 21.34 167.629 21.7453 166.925 22.556C166.243 23.3453 165.901 24.38 165.901 25.66C165.901 26.94 166.243 27.9853 166.925 28.796C167.629 29.6067 168.515 30.012 169.581 30.012ZM174.125 33.5L173.069 29.788H173.357V21.948H173.069V11.708H177.261V33.5H174.125ZM185.655 33.948C184.503 33.948 183.489 33.7347 182.615 33.308C181.74 32.86 181.068 32.2413 180.599 31.452C180.129 30.6413 179.895 29.7027 179.895 28.636C179.895 27.5693 180.14 26.6413 180.631 25.852C181.143 25.0627 181.836 24.4547 182.711 24.028C183.585 23.58 184.577 23.356 185.687 23.356C187.201 23.356 188.428 23.708 189.367 24.412C190.327 25.0947 190.977 26.076 191.319 27.356L189.367 27.1V23.324C189.367 22.7267 189.153 22.1933 188.727 21.724C188.3 21.2547 187.607 21.02 186.647 21.02C186.049 21.02 185.388 21.0947 184.663 21.244C183.937 21.372 183.18 21.628 182.391 22.012L181.143 18.94C182.06 18.492 183.031 18.14 184.055 17.884C185.1 17.628 186.145 17.5 187.191 17.5C188.62 17.5 189.804 17.756 190.743 18.268C191.681 18.78 192.385 19.484 192.855 20.38C193.324 21.276 193.559 22.3 193.559 23.452V33.5H190.231L189.335 30.524L191.319 29.948C190.956 31.2067 190.284 32.188 189.303 32.892C188.343 33.596 187.127 33.948 185.655 33.948ZM186.807 30.748C187.575 30.748 188.193 30.556 188.663 30.172C189.132 29.788 189.367 29.276 189.367 28.636C189.367 27.9747 189.132 27.4627 188.663 27.1C188.193 26.716 187.575 26.524 186.807 26.524C186.039 26.524 185.42 26.716 184.951 27.1C184.481 27.4627 184.247 27.9747 184.247 28.636C184.247 29.276 184.481 29.788 184.951 30.172C185.42 30.556 186.039 30.748 186.807 30.748ZM206.356 17.5C207.423 17.5 208.276 17.6813 208.916 18.044C209.578 18.4067 210.068 18.8973 210.388 19.516C210.73 20.1347 210.954 20.8387 211.06 21.628C211.167 22.396 211.22 23.196 211.22 24.028V33.5H207.028V23.996C207.028 23.036 206.836 22.396 206.452 22.076C206.09 21.756 205.62 21.596 205.044 21.596C204.511 21.596 203.967 21.7027 203.412 21.916C202.858 22.108 202.335 22.396 201.844 22.78C201.375 23.1427 200.97 23.5587 200.628 24.028L200.084 21.852H201.14V33.5H196.948V17.852H200.084L200.948 20.86L199.604 20.796C200.159 20.156 200.788 19.5907 201.492 19.1C202.218 18.6093 202.986 18.2253 203.796 17.948C204.607 17.6493 205.46 17.5 206.356 17.5Z" fill="#A1AAD2"/>
<defs>
<clipPath id="clip0_2307_11">
<rect width="45" height="45" fill="white"/>
</clipPath>
</defs>
</svg>
